<?xml version="1.0" encoding="UTF-8" standalone="no"?>
<svg xmlns:dc="http://purl.org/dc/elements/1.1/" xmlns:cc="http://creativecommons.org/ns#" xmlns:rdf="http://www.w3.org/1999/02/22-rdf-syntax-ns#" xmlns:svg="http://www.w3.org/2000/svg" xmlns="http://www.w3.org/2000/svg" xmlns:sodipodi="http://sodipodi.sourceforge.net/DTD/sodipodi-0.dtd" xmlns:inkscape="http://www.inkscape.org/namespaces/inkscape" inkscape:export-ydpi="96" inkscape:export-xdpi="96" inkscape:export-filename="C:\Users\Kevin\OneDrive\Documents\Sailing\CreekFleet\Creekfleet Burgee.png" sodipodi:docname="Creekfleet Burgee.svg" inkscape:version="1.0beta2 (2b71d25, 2019-12-03)" id="svg8" version="1.1" viewBox="0 0 297 210" height="8.2677164in" width="11.692913in">
  <defs id="defs2"/>
  <sodipodi:namedview inkscape:object-paths="true" inkscape:document-rotation="0" inkscape:snap-bbox="true" inkscape:snap-others="false" inkscape:pagecheckerboard="true" inkscape:window-maximized="1" inkscape:window-y="23" inkscape:window-x="0" inkscape:window-height="814" inkscape:window-width="1440" units="in" showguides="false" showgrid="false" inkscape:current-layer="layer1" inkscape:document-units="mm" inkscape:cy="398.61756" inkscape:cx="525.94794" inkscape:zoom="0.76" inkscape:pageshadow="2" inkscape:pageopacity="0.0" borderopacity="1.0" bordercolor="#666666" pagecolor="#ffffff" id="base">
    <inkscape:grid id="grid4518" type="xygrid"/>
  </sodipodi:namedview>
  <metadata id="metadata5">
    <rdf:RDF>
      <cc:Work rdf:about="">
        <dc:format>image/svg+xml</dc:format>
        <dc:type rdf:resource="http://purl.org/dc/dcmitype/StillImage"/>
        <dc:title/>
      </cc:Work>
    </rdf:RDF>
  </metadata>
  <g transform="translate(0,-87)" id="layer1" inkscape:groupmode="layer" inkscape:label="Layer 1">
    <path transform="matrix(3.5453854,0.02912019,-0.05835343,2.0228988,16.161202,-73.686875)" inkscape:transform-center-y="0.072215615" inkscape:transform-center-x="-46.272771" d="M 78.54817,131.22202 38.68848,154.76529 0.50934177,177.9314 0.05011439,131.64026 -0.92275745,86.993105 39.39616,109.74097 Z" inkscape:randomized="0" inkscape:rounded="0" inkscape:flatsided="false" sodipodi:arg2="1.062914" sodipodi:arg1="-0.01574673" sodipodi:r2="25.998014" sodipodi:r1="52.509762" sodipodi:cy="132.04884" sodipodi:cx="26.044918" sodipodi:sides="3" id="path4542" style="fill:#12009a;fill-opacity:1;stroke:none;stroke-width:0.264583" sodipodi:type="star"/>
    <path inkscape:connector-curvature="0" id="path3695" d="m 178.68301,191.3301 c -0.0123,-20.58256 -0.0521,-24.37958 -0.25116,-23.93295 -0.13021,0.29199 -5.06875,11.16135 -10.97454,24.15415 -5.90577,12.9928 -10.77886,23.76261 -10.82905,23.93293 -0.0863,0.2926 0.51957,0.30966 10.98896,0.30966 h 11.08022 z" style="fill:#ffffff;stroke-width:0.17695333"/>
    <path inkscape:connector-curvature="0" id="path3691" d="m 194.53399,215.13032 c -0.14487,-0.36496 -3.12826,-7.98944 -6.62983,-16.94329 l -6.36646,-16.27968 -0.006,16.94327 -0.006,16.94327 h 6.63432 6.6343 l -0.26334,-0.66357 z" style="fill:#ffffff;stroke-width:0.17695333"/>
    <flowRoot transform="matrix(0.26458333,0,0,0.26458333,-2.7003125,-0.97777657)" style="font-style:normal;font-weight:normal;font-size:40px;line-height:1.25;font-family:sans-serif;letter-spacing:0px;word-spacing:0px;fill:#000000;fill-opacity:1;stroke:none" id="flowRoot3705" xml:space="preserve"><flowRegion id="flowRegion3707"><rect y="-578.99548" x="-2019.697" height="1213.6364" width="1886.3636" id="rect3709"/></flowRegion><flowPara id="flowPara3711"/></flowRoot>
    <path transform="matrix(1.5194269,0.035308,-0.0265217,2.0227939,11.507515,-73.834561)" inkscape:transform-center-y="-0.090644775" inkscape:transform-center-x="-19.79678" d="M 78.54817,131.22202 39.631774,154.74883 0.50934177,177.9314 -0.40727309,132.46541 -0.92275745,86.993105 38.910253,108.93229 Z" inkscape:randomized="0" inkscape:rounded="0" inkscape:flatsided="false" sodipodi:arg2="1.0314508" sodipodi:arg1="-0.01574673" sodipodi:r2="26.455471" sodipodi:r1="52.509762" sodipodi:cy="132.04884" sodipodi:cx="26.044918" sodipodi:sides="3" id="path4542-8" style="fill:#ffffff;fill-opacity:1;stroke:none;stroke-width:0.264583" sodipodi:type="star"/>
    <g transform="translate(11.464139,-2.8624807)" id="g4532">
      <path style="fill:#12009a;fill-opacity:1;stroke-width:0.17695333" d="m 56.852363,215.03921 c -6.841604,-1.13181 -11.8777,-5.22483 -13.9928,-11.37248 -1.470001,-4.27264 -1.24611,-10.31962 0.541048,-14.61257 1.632855,-3.9223 5.261617,-7.50836 9.092838,-8.98583 2.394325,-0.92336 3.903472,-1.23148 6.589708,-1.34545 3.282512,-0.13926 6.757472,0.31137 10.554082,1.36862 l 0.663575,0.18478 v 2.80037 2.80038 l -2.256155,-0.7606 c -3.990823,-1.34539 -7.935239,-1.83348 -10.520004,-1.30178 -3.021222,0.62149 -5.924085,2.96223 -7.444623,6.003 -1.256466,2.5127 -1.454922,3.4533 -1.455497,6.89866 -3.55e-4,2.56687 0.04964,3.08012 0.413904,4.24688 0.608231,1.9479 1.524351,3.569 2.78853,4.93446 3.92966,4.24439 9.634169,5.13095 17.36788,2.6992 l 1.636825,-0.51468 -0.0021,2.58964 -0.0021,2.58962 -1.900907,0.57765 c -1.045491,0.3177 -2.697187,0.73557 -3.670427,0.92859 -2.369015,0.46985 -6.416185,0.6006 -8.405281,0.27154 z" id="path3699" inkscape:connector-curvature="0"/>
      <path style="fill:#12009a;fill-opacity:1;stroke-width:0.17695333" d="m 58.444944,196.98175 v -8.40529 h 6.01641 6.01642 v 1.23867 1.23866 h -4.51231 -4.51231 v 2.56582 2.56584 h 3.89297 3.89297 v 1.15018 1.1502 h -3.89297 -3.89297 v 3.45059 3.45059 h -1.504099 -1.504111 z" id="path3697" inkscape:connector-curvature="0"/>
    </g>
  </g>
</svg>