<?xml version="1.0" encoding="UTF-8" standalone="no"?>
<svg
   xmlns:dc="http://purl.org/dc/elements/1.1/"
   xmlns:cc="http://creativecommons.org/ns#"
   xmlns:rdf="http://www.w3.org/1999/02/22-rdf-syntax-ns#"
   xmlns:svg="http://www.w3.org/2000/svg"
   xmlns="http://www.w3.org/2000/svg"
   xmlns:sodipodi="http://sodipodi.sourceforge.net/DTD/sodipodi-0.dtd"
   xmlns:inkscape="http://www.inkscape.org/namespaces/inkscape"
   inkscape:export-ydpi="96"
   inkscape:export-xdpi="96"
   inkscape:export-filename="C:\Users\Kevin\OneDrive\Documents\Sailing\CreekFleet\Creekfleet Burgee.png"
   sodipodi:docname="pcb_logo.svg"
   inkscape:version="0.92.4 (5da689c313, 2019-01-14)"
   id="svg8"
   version="1.1"
   viewBox="0 0 15.425764 10.16"
   height="0.40000001in"
   width="0.60731351in">
  <defs
     id="defs2" />
  <sodipodi:namedview
     inkscape:object-paths="true"
     inkscape:document-rotation="0"
     inkscape:snap-bbox="true"
     inkscape:snap-others="false"
     inkscape:pagecheckerboard="true"
     inkscape:window-maximized="1"
     inkscape:window-y="-8"
     inkscape:window-x="-8"
     inkscape:window-height="1017"
     inkscape:window-width="1920"
     units="in"
     showguides="false"
     showgrid="false"
     inkscape:current-layer="layer1"
     inkscape:document-units="mm"
     inkscape:cy="18.510244"
     inkscape:cx="22.365889"
     inkscape:zoom="17.196837"
     inkscape:pageshadow="2"
     inkscape:pageopacity="0.0"
     borderopacity="1.0"
     bordercolor="#666666"
     pagecolor="#ffffff"
     id="base"
     fit-margin-top="0"
     fit-margin-left="0"
     fit-margin-right="0"
     fit-margin-bottom="0">
    <inkscape:grid
       id="grid4518"
       type="xygrid"
       originx="-7.3754857"
       originy="-10.734817" />
  </sodipodi:namedview>
  <metadata
     id="metadata5">
    <rdf:RDF>
      <cc:Work
         rdf:about="">
        <dc:format>image/svg+xml</dc:format>
        <dc:type
           rdf:resource="http://purl.org/dc/dcmitype/StillImage" />
        <dc:title></dc:title>
      </cc:Work>
    </rdf:RDF>
  </metadata>
  <g
     transform="translate(-7.3754854,-276.10518)"
     id="layer1"
     inkscape:groupmode="layer"
     inkscape:label="Layer 1">
    <path
       transform="matrix(0.19559345,0.00160652,-0.00321927,0.11160021,7.8601798,266.40718)"
       style="fill:#12009a;fill-opacity:1;stroke:none;stroke-width:0.26458299"
       inkscape:transform-center-x="-46.272771"
       inkscape:transform-center-y="0.072215615"
       d="M 78.54817,131.22202 38.68848,154.76529 0.50934177,177.9314 0.05011439,131.64026 -0.92275745,86.993105 39.39616,109.74097 Z"
       id="path4542" />
    <path
       inkscape:connector-curvature="0"
       id="path3695"
       d="m 16.826258,281.02776 c -6.79e-4,-1.13551 -0.0029,-1.34499 -0.01386,-1.32035 -0.0072,0.0161 -0.279636,0.61576 -0.605449,1.33255 -0.325812,0.71679 -0.594653,1.31095 -0.597422,1.32034 -0.0048,0.0161 0.02866,0.0171 0.606244,0.0171 h 0.611279 z"
       style="fill:#ffffff;stroke-width:0.00976224" />
    <path
       inkscape:connector-curvature="0"
       id="path3691"
       d="m 17.700732,282.34078 c -0.008,-0.0201 -0.172581,-0.44077 -0.365758,-0.93474 l -0.351227,-0.89812 -3.31e-4,0.93473 -3.31e-4,0.93474 h 0.366005 0.366004 l -0.01453,-0.0366 z"
       style="fill:#ffffff;stroke-width:0.00976224" />
    <path
       transform="matrix(0.08382444,0.00194789,-0.00146316,0.11159442,7.6034431,266.39903)"
       style="fill:#ffffff;fill-opacity:1;stroke:none;stroke-width:0.26458299"
       inkscape:transform-center-x="-19.79678"
       inkscape:transform-center-y="-0.090644775"
       d="M 78.54817,131.22202 39.631774,154.74883 0.50934177,177.9314 -0.40727309,132.46541 -0.92275745,86.993105 38.910253,108.93229 Z"
       id="path4542-8" />
    <path
       inkscape:connector-curvature="0"
       id="path3699"
       d="m 10.737507,282.17783 c -0.37744,-0.0624 -0.655274,-0.28824 -0.7719608,-0.6274 -0.081098,-0.23572 -0.068746,-0.56932 0.029849,-0.80615 0.090082,-0.21639 0.2902748,-0.41423 0.5016378,-0.49574 0.132091,-0.0509 0.215348,-0.0679 0.363544,-0.0742 0.181091,-0.008 0.372799,0.0172 0.582252,0.0755 l 0.03661,0.0102 v 0.1545 0.15449 l -0.124469,-0.042 c -0.220167,-0.0742 -0.437775,-0.10115 -0.580372,-0.0718 -0.166676,0.0343 -0.326823,0.16342 -0.410709,0.33118 -0.06932,0.13862 -0.08026,0.19051 -0.0803,0.38059 -2e-5,0.14161 0.0027,0.16992 0.02283,0.23429 0.03355,0.10746 0.0841,0.1969 0.153839,0.27223 0.216793,0.23415 0.531502,0.28306 0.958159,0.14891 l 0.0903,-0.0284 -1.15e-4,0.14287 -1.16e-4,0.14286 -0.10487,0.0319 c -0.05768,0.0175 -0.1488,0.0406 -0.202492,0.0512 -0.130695,0.0259 -0.353971,0.0331 -0.463707,0.015 z"
       style="fill:#12009a;fill-opacity:1;stroke-width:0.00976224" />
    <path
       inkscape:connector-curvature="0"
       id="path3697"
       d="m 10.825368,281.18163 v -0.46371 h 0.331916 0.331916 v 0.0683 0.0683 h -0.248937 -0.248937 v 0.14156 0.14155 h 0.214769 0.214769 v 0.0634 0.0635 h -0.214769 -0.214769 v 0.19036 0.19037 h -0.08298 -0.08298 z"
       style="fill:#12009a;fill-opacity:1;stroke-width:0.00976224" />
  </g>
</svg>
